# xmcd
#
# Track frame offsets:
#	150
#	8860
#	9600
#	20635
#	33340
#	53827
#	65465
#	74505
#	82090
#	95162
#	106880
#	118647
#	122472
#	138865
#	155900
#	156990
#	169415
#	182705
#	193787
#	206062
#	219115
#	232115
#	247150
#	258360
#
# Disc length: 3550 seconds
#
# Revision: 9
# Processed by: cddbd v1.5.1PL2 Copyright (c) Steve Scherf et al.
# Submitted via: EasyCDDAExtractor 9.0.0.1
#
DISCID=610ddc18
DTITLE=Kenji Ito - Romancing Saga -Minstrel Song-
DYEAR=2005
DGENRE=Game
TTITLE0=Minstrel Song
TTITLE1=Goodnight
TTITLE2=Invitation to the Darkness
TTITLE3=Passionate Rhythm
TTITLE4=Lost Woods
TTITLE5=Voyage
TTITLE6=Give Me a Break You Guys!
TTITLE7=We Are Pirates
TTITLE8=Sewers
TTITLE9=Isle of Evil
TTITLE10=Chaos Labyrinth
TTITLE11=Escape!
TTITLE12=Sacred Domain -Four Guardian Kings' Dungeon-
TTITLE13=A Challenge to God -Four Guardian Kings Battle-
TTITLE14=Requiem
TTITLE15=Heartbroken Aisha
TTITLE16=Theme of Solitude
TTITLE17=Unerasable Pain
TTITLE18=A Piece of Courage
TTITLE19=Tears of Happiness
TTITLE20=Village of the Giants
TTITLE21=Wicked Melody
TTITLE22=Wipe Away the Tears
TTITLE23=I Am a Pirate
EXTD=YEAR: 2005
EXTT0=
EXTT1=
EXTT2=
EXTT3=
EXTT4=
EXTT5=
EXTT6=
EXTT7=
EXTT8=
EXTT9=
EXTT10=
EXTT11=
EXTT12=
EXTT13=
EXTT14=
EXTT15=
EXTT16=
EXTT17=
EXTT18=
EXTT19=
EXTT20=
EXTT21=
EXTT22=
EXTT23=
PLAYORDER=
